<svg xmlns="http://www.w3.org/2000/svg" version="1.1" xmlns:xlink="http://www.w3.org/1999/xlink" xmlns:svgjs="http://svgjs.com/svgjs" width="1440" height="560" preserveAspectRatio="none" viewBox="0 0 1440 560"><g mask="url(&quot;#SvgjsMask1171&quot;)" fill="none"><rect width="1440" height="560" x="0" y="0" fill="url(#SvgjsLinearGradient1172)"></rect><g mask="url(&quot;#SvgjsMask1173&quot;)"><path d="M494.5 264.5L517.5 287.5L540.5 287.5L563.5 287.5L586.5 287.5L609.5 287.5L632.5 287.5M816.5 264.5L839.5 241.5L862.5 241.5L885.5 241.5L908.5 241.5M517.5 264.5L540.5 264.5L563.5 264.5M747.5 241.5L770.5 264.5L793.5 264.5M172.5 264.5L195.5 287.5L218.5 287.5L241.5 287.5M586.5 241.5L609.5 264.5L632.5 264.5L655.5 264.5L678.5 264.5L701.5 264.5L724.5 264.5L747.5 264.5M471.5 264.5L494.5 287.5M1000.5 195.5L1023.5 195.5L1046.5 195.5L1069.5 195.5L1092.5 218.5L1115.5 218.5M954.5 241.5L977.5 264.5L1000.5 264.5L1023.5 264.5L1046.5 264.5L1069.5 264.5L1092.5 241.5L1115.5 241.5L1138.5 241.5L1161.5 241.5L1184.5 241.5L1207.5 241.5L1230.5 241.5L1253.5 241.5L1276.5 241.5L1299.5 241.5L1322.5 264.5L1345.5 264.5L1368.5 264.5L1391.5 264.5M1069.5 149.5L1092.5 172.5L1115.5 172.5L1138.5 172.5L1161.5 195.5L1184.5 195.5L1207.5 195.5L1230.5 218.5L1253.5 218.5L1276.5 218.5M1253.5 195.5L1276.5 172.5L1299.5 149.5L1322.5 149.5L1345.5 149.5M1046.5 149.5L1069.5 172.5M724.5 241.5L747.5 218.5L770.5 218.5M609.5 241.5L632.5 218.5L655.5 218.5L678.5 218.5L701.5 218.5L724.5 218.5L747.5 195.5L770.5 172.5M-11.5 287.5L11.5 287.5L34.5 287.5L57.5 287.5L80.5 287.5L103.5 287.5L126.5 287.5L149.5 264.5L172.5 264.5L195.5 264.5L218.5 264.5L241.5 264.5L264.5 264.5L287.5 264.5L310.5 264.5L333.5 264.5L356.5 264.5L379.5 264.5L402.5 264.5L425.5 264.5L448.5 264.5L471.5 264.5L494.5 264.5L517.5 264.5L540.5 241.5L563.5 241.5L586.5 241.5L609.5 241.5L632.5 241.5L655.5 241.5L678.5 241.5L701.5 241.5L724.5 241.5L747.5 241.5L770.5 241.5L793.5 241.5L816.5 264.5L839.5 264.5L862.5 264.5L885.5 264.5L908.5 264.5L931.5 241.5L954.5 241.5L977.5 218.5L1000.5 195.5L1023.5 172.5L1046.5 149.5L1069.5 149.5L1092.5 149.5L1115.5 149.5L1138.5 149.5L1161.5 172.5L1184.5 172.5L1207.5 172.5L1230.5 195.5L1253.5 195.5L1276.5 195.5L1299.5 172.5" stroke="#3a7cc3" stroke-width="3.83"></path><path d="M1293.75 172.5 a5.75 5.75 0 1 0 11.5 0 a5.75 5.75 0 1 0 -11.5 0zM626.75 287.5 a5.75 5.75 0 1 0 11.5 0 a5.75 5.75 0 1 0 -11.5 0zM902.75 241.5 a5.75 5.75 0 1 0 11.5 0 a5.75 5.75 0 1 0 -11.5 0zM557.75 264.5 a5.75 5.75 0 1 0 11.5 0 a5.75 5.75 0 1 0 -11.5 0zM787.75 264.5 a5.75 5.75 0 1 0 11.5 0 a5.75 5.75 0 1 0 -11.5 0zM235.75 287.5 a5.75 5.75 0 1 0 11.5 0 a5.75 5.75 0 1 0 -11.5 0zM741.75 264.5 a5.75 5.75 0 1 0 11.5 0 a5.75 5.75 0 1 0 -11.5 0zM488.75 287.5 a5.75 5.75 0 1 0 11.5 0 a5.75 5.75 0 1 0 -11.5 0zM1109.75 218.5 a5.75 5.75 0 1 0 11.5 0 a5.75 5.75 0 1 0 -11.5 0zM1385.75 264.5 a5.75 5.75 0 1 0 11.5 0 a5.75 5.75 0 1 0 -11.5 0zM1270.75 218.5 a5.75 5.75 0 1 0 11.5 0 a5.75 5.75 0 1 0 -11.5 0zM1339.75 149.5 a5.75 5.75 0 1 0 11.5 0 a5.75 5.75 0 1 0 -11.5 0zM1063.75 172.5 a5.75 5.75 0 1 0 11.5 0 a5.75 5.75 0 1 0 -11.5 0zM764.75 218.5 a5.75 5.75 0 1 0 11.5 0 a5.75 5.75 0 1 0 -11.5 0zM764.75 172.5 a5.75 5.75 0 1 0 11.5 0 a5.75 5.75 0 1 0 -11.5 0z" fill="#3a7cc3"></path><path d="M264.5 241.5L287.5 218.5L310.5 218.5L333.5 218.5M241.5 241.5L264.5 218.5L287.5 195.5L310.5 195.5L333.5 195.5L356.5 195.5L379.5 195.5M563.5 218.5L586.5 195.5M471.5 241.5L494.5 218.5L517.5 218.5M425.5 241.5L448.5 218.5L471.5 218.5L494.5 195.5L517.5 195.5M218.5 241.5L241.5 218.5L264.5 195.5M-11.5 264.5L11.5 264.5L34.5 264.5L57.5 264.5L80.5 264.5L103.5 264.5L126.5 264.5L149.5 241.5L172.5 241.5L195.5 241.5L218.5 241.5L241.5 241.5L264.5 241.5L287.5 241.5L310.5 241.5L333.5 241.5L356.5 241.5L379.5 241.5L402.5 241.5L425.5 241.5L448.5 241.5L471.5 241.5L494.5 241.5L517.5 241.5L540.5 218.5L563.5 218.5L586.5 218.5" stroke="#dd1133" stroke-width="3.83"></path><path d="M580.75 218.5 a5.75 5.75 0 1 0 11.5 0 a5.75 5.75 0 1 0 -11.5 0zM327.75 218.5 a5.75 5.75 0 1 0 11.5 0 a5.75 5.75 0 1 0 -11.5 0zM373.75 195.5 a5.75 5.75 0 1 0 11.5 0 a5.75 5.75 0 1 0 -11.5 0zM580.75 195.5 a5.75 5.75 0 1 0 11.5 0 a5.75 5.75 0 1 0 -11.5 0zM511.75 218.5 a5.75 5.75 0 1 0 11.5 0 a5.75 5.75 0 1 0 -11.5 0zM511.75 195.5 a5.75 5.75 0 1 0 11.5 0 a5.75 5.75 0 1 0 -11.5 0zM258.75 195.5 a5.75 5.75 0 1 0 11.5 0 a5.75 5.75 0 1 0 -11.5 0z" fill="#dd1133"></path><path d="M517.5 310.5L540.5 333.5L563.5 333.5L586.5 333.5L609.5 333.5M241.5 310.5L264.5 310.5L287.5 310.5L310.5 310.5M701.5 310.5L724.5 287.5M816.5 287.5L839.5 310.5L862.5 310.5L885.5 310.5M793.5 287.5L816.5 310.5L839.5 333.5L862.5 333.5L885.5 333.5M655.5 310.5L678.5 333.5L701.5 333.5L724.5 333.5M149.5 310.5L172.5 287.5M747.5 287.5L770.5 310.5L793.5 310.5L816.5 333.5L839.5 356.5M425.5 310.5L448.5 287.5L471.5 287.5M-11.5 310.5L11.5 310.5L34.5 310.5L57.5 310.5L80.5 310.5L103.5 310.5L126.5 310.5L149.5 310.5L172.5 310.5L195.5 310.5L218.5 310.5L241.5 310.5L264.5 287.5L287.5 287.5L310.5 287.5L333.5 287.5L356.5 287.5L379.5 287.5L402.5 310.5L425.5 310.5L448.5 310.5L471.5 310.5L494.5 310.5L517.5 310.5L540.5 310.5L563.5 310.5L586.5 310.5L609.5 310.5L632.5 310.5L655.5 310.5L678.5 310.5L701.5 310.5L724.5 310.5L747.5 287.5L770.5 287.5L793.5 287.5L816.5 287.5L839.5 287.5" stroke="#dd1133" stroke-width="3.83"></path><path d="M833.75 287.5 a5.75 5.75 0 1 0 11.5 0 a5.75 5.75 0 1 0 -11.5 0zM603.75 333.5 a5.75 5.75 0 1 0 11.5 0 a5.75 5.75 0 1 0 -11.5 0zM304.75 310.5 a5.75 5.75 0 1 0 11.5 0 a5.75 5.75 0 1 0 -11.5 0zM718.75 287.5 a5.75 5.75 0 1 0 11.5 0 a5.75 5.75 0 1 0 -11.5 0zM879.75 310.5 a5.75 5.75 0 1 0 11.5 0 a5.75 5.75 0 1 0 -11.5 0zM879.75 333.5 a5.75 5.75 0 1 0 11.5 0 a5.75 5.75 0 1 0 -11.5 0zM718.75 333.5 a5.75 5.75 0 1 0 11.5 0 a5.75 5.75 0 1 0 -11.5 0zM166.75 287.5 a5.75 5.75 0 1 0 11.5 0 a5.75 5.75 0 1 0 -11.5 0zM833.75 356.5 a5.75 5.75 0 1 0 11.5 0 a5.75 5.75 0 1 0 -11.5 0zM465.75 287.5 a5.75 5.75 0 1 0 11.5 0 a5.75 5.75 0 1 0 -11.5 0z" fill="#dd1133"></path><path d="M195.5 195.5L218.5 218.5M80.5 241.5L103.5 218.5M172.5 195.5L195.5 218.5M-11.5 241.5L11.5 241.5L34.5 241.5L57.5 241.5L80.5 241.5L103.5 241.5L126.5 241.5L149.5 218.5L172.5 195.5L195.5 195.5L218.5 195.5" stroke="#dd1133" stroke-width="3.83"></path><path d="M212.75 195.5 a5.75 5.75 0 1 0 11.5 0 a5.75 5.75 0 1 0 -11.5 0zM212.75 218.5 a5.75 5.75 0 1 0 11.5 0 a5.75 5.75 0 1 0 -11.5 0zM97.75 218.5 a5.75 5.75 0 1 0 11.5 0 a5.75 5.75 0 1 0 -11.5 0zM189.75 218.5 a5.75 5.75 0 1 0 11.5 0 a5.75 5.75 0 1 0 -11.5 0z" fill="#dd1133"></path><path d="M471.5 333.5L494.5 333.5L517.5 333.5M310.5 333.5L333.5 333.5L356.5 333.5L379.5 333.5M-11.5 333.5L11.5 333.5L34.5 333.5L57.5 333.5L80.5 333.5L103.5 333.5L126.5 333.5L149.5 333.5L172.5 333.5L195.5 333.5L218.5 333.5L241.5 333.5L264.5 333.5L287.5 333.5L310.5 333.5L333.5 310.5L356.5 310.5L379.5 310.5L402.5 333.5L425.5 333.5L448.5 333.5L471.5 333.5L494.5 356.5L517.5 356.5L540.5 356.5L563.5 356.5L586.5 356.5" stroke="#3a7cc3" stroke-width="3.83"></path><path d="M580.75 356.5 a5.75 5.75 0 1 0 11.5 0 a5.75 5.75 0 1 0 -11.5 0zM511.75 333.5 a5.75 5.75 0 1 0 11.5 0 a5.75 5.75 0 1 0 -11.5 0zM373.75 333.5 a5.75 5.75 0 1 0 11.5 0 a5.75 5.75 0 1 0 -11.5 0z" fill="#3a7cc3"></path><path d="M-11.5 218.5L11.5 218.5L34.5 218.5" stroke="#3a7cc3" stroke-width="3.83"></path><path d="M28.75 218.5 a5.75 5.75 0 1 0 11.5 0 a5.75 5.75 0 1 0 -11.5 0z" fill="#3a7cc3"></path><path d="M-11.5 356.5L11.5 356.5L34.5 356.5L57.5 356.5L80.5 356.5L103.5 356.5L126.5 356.5L149.5 356.5L172.5 356.5L195.5 356.5L218.5 356.5L241.5 356.5L264.5 356.5L287.5 356.5L310.5 356.5L333.5 356.5L356.5 356.5L379.5 356.5L402.5 356.5L425.5 356.5L448.5 356.5L471.5 356.5L494.5 379.5L517.5 379.5L540.5 379.5L563.5 379.5L586.5 379.5L609.5 379.5" stroke="#3a7cc3" stroke-width="3.83"></path><path d="M603.75 379.5 a5.75 5.75 0 1 0 11.5 0 a5.75 5.75 0 1 0 -11.5 0z" fill="#3a7cc3"></path><path d="M701.5 172.5L724.5 172.5L747.5 172.5M839.5 172.5L862.5 195.5M954.5 149.5L977.5 126.5L1000.5 103.5L1023.5 80.5M816.5 172.5L839.5 195.5L862.5 218.5L885.5 218.5L908.5 218.5M678.5 195.5L701.5 195.5L724.5 195.5M1115.5 126.5L1138.5 103.5L1161.5 103.5M1046.5 126.5L1069.5 103.5M57.5 195.5L80.5 218.5M1000.5 126.5L1023.5 149.5M793.5 172.5L816.5 195.5L839.5 218.5M540.5 172.5L563.5 195.5M885.5 172.5L908.5 149.5L931.5 126.5L954.5 126.5M1023.5 126.5L1046.5 103.5L1069.5 80.5M-11.5 195.5L11.5 195.5L34.5 195.5L57.5 195.5L80.5 195.5L103.5 195.5L126.5 195.5L149.5 195.5L172.5 172.5L195.5 172.5L218.5 172.5L241.5 172.5L264.5 172.5L287.5 172.5L310.5 172.5L333.5 172.5L356.5 172.5L379.5 172.5L402.5 172.5L425.5 172.5L448.5 172.5L471.5 172.5L494.5 172.5L517.5 172.5L540.5 172.5L563.5 172.5L586.5 172.5L609.5 195.5L632.5 195.5L655.5 195.5L678.5 195.5L701.5 172.5L724.5 149.5L747.5 149.5L770.5 149.5L793.5 172.5L816.5 172.5L839.5 172.5L862.5 172.5L885.5 172.5L908.5 172.5L931.5 149.5L954.5 149.5L977.5 149.5L1000.5 126.5L1023.5 126.5L1046.5 126.5L1069.5 126.5L1092.5 126.5L1115.5 126.5L1138.5 126.5L1161.5 126.5" stroke="#3a7cc3" stroke-width="3.83"></path><path d="M1155.75 126.5 a5.75 5.75 0 1 0 11.5 0 a5.75 5.75 0 1 0 -11.5 0zM741.75 172.5 a5.75 5.75 0 1 0 11.5 0 a5.75 5.75 0 1 0 -11.5 0zM856.75 195.5 a5.75 5.75 0 1 0 11.5 0 a5.75 5.75 0 1 0 -11.5 0zM1017.75 80.5 a5.75 5.75 0 1 0 11.5 0 a5.75 5.75 0 1 0 -11.5 0zM902.75 218.5 a5.75 5.75 0 1 0 11.5 0 a5.75 5.75 0 1 0 -11.5 0zM718.75 195.5 a5.75 5.75 0 1 0 11.5 0 a5.75 5.75 0 1 0 -11.5 0zM1155.75 103.5 a5.75 5.75 0 1 0 11.5 0 a5.75 5.75 0 1 0 -11.5 0zM1063.75 103.5 a5.75 5.75 0 1 0 11.5 0 a5.75 5.75 0 1 0 -11.5 0zM74.75 218.5 a5.75 5.75 0 1 0 11.5 0 a5.75 5.75 0 1 0 -11.5 0zM1017.75 149.5 a5.75 5.75 0 1 0 11.5 0 a5.75 5.75 0 1 0 -11.5 0zM833.75 218.5 a5.75 5.75 0 1 0 11.5 0 a5.75 5.75 0 1 0 -11.5 0zM557.75 195.5 a5.75 5.75 0 1 0 11.5 0 a5.75 5.75 0 1 0 -11.5 0zM948.75 126.5 a5.75 5.75 0 1 0 11.5 0 a5.75 5.75 0 1 0 -11.5 0zM1063.75 80.5 a5.75 5.75 0 1 0 11.5 0 a5.75 5.75 0 1 0 -11.5 0z" fill="#3a7cc3"></path><path d="M425.5 379.5L448.5 402.5L471.5 402.5L494.5 425.5L517.5 425.5L540.5 425.5L563.5 425.5L586.5 425.5L609.5 425.5M402.5 379.5L425.5 402.5L448.5 425.5L471.5 425.5L494.5 448.5M793.5 448.5L816.5 471.5L839.5 471.5L862.5 471.5L885.5 471.5L908.5 471.5L931.5 471.5L954.5 471.5L977.5 471.5L1000.5 494.5L1023.5 494.5M172.5 379.5L195.5 402.5L218.5 402.5L241.5 402.5L264.5 402.5L287.5 402.5L310.5 402.5L333.5 402.5M678.5 402.5L701.5 402.5L724.5 402.5M632.5 402.5L655.5 379.5L678.5 379.5L701.5 379.5L724.5 379.5L747.5 379.5L770.5 379.5L793.5 379.5L816.5 379.5L839.5 379.5L862.5 379.5L885.5 379.5L908.5 356.5L931.5 356.5L954.5 356.5L977.5 356.5L1000.5 356.5L1023.5 356.5L1046.5 356.5L1069.5 356.5M379.5 379.5L402.5 402.5L425.5 425.5L448.5 448.5M1000.5 471.5L1023.5 448.5L1046.5 425.5L1069.5 425.5L1092.5 425.5M80.5 379.5L103.5 402.5L126.5 402.5L149.5 402.5L172.5 402.5M908.5 448.5L931.5 425.5L954.5 425.5L977.5 425.5L1000.5 425.5L1023.5 425.5L1046.5 402.5L1069.5 402.5M770.5 425.5L793.5 425.5L816.5 425.5L839.5 425.5L862.5 425.5L885.5 425.5L908.5 425.5L931.5 402.5L954.5 402.5L977.5 402.5L1000.5 402.5M356.5 379.5L379.5 402.5L402.5 425.5L425.5 448.5M1046.5 448.5L1069.5 471.5L1092.5 471.5L1115.5 471.5L1138.5 471.5L1161.5 471.5L1184.5 471.5L1207.5 471.5L1230.5 471.5L1253.5 471.5M1023.5 471.5L1046.5 471.5M-11.5 379.5L11.5 379.5L34.5 379.5L57.5 379.5L80.5 379.5L103.5 379.5L126.5 379.5L149.5 379.5L172.5 379.5L195.5 379.5L218.5 379.5L241.5 379.5L264.5 379.5L287.5 379.5L310.5 379.5L333.5 379.5L356.5 379.5L379.5 379.5L402.5 379.5L425.5 379.5L448.5 379.5L471.5 379.5L494.5 402.5L517.5 402.5L540.5 402.5L563.5 402.5L586.5 402.5L609.5 402.5L632.5 402.5L655.5 402.5L678.5 402.5L701.5 425.5L724.5 425.5L747.5 425.5L770.5 425.5L793.5 448.5L816.5 448.5L839.5 448.5L862.5 448.5L885.5 448.5L908.5 448.5L931.5 448.5L954.5 448.5L977.5 448.5L1000.5 471.5L1023.5 471.5L1046.5 448.5L1069.5 448.5L1092.5 448.5L1115.5 448.5L1138.5 448.5L1161.5 448.5L1184.5 448.5L1207.5 448.5L1230.5 448.5L1253.5 448.5L1276.5 425.5" stroke="#dd1133" stroke-width="3.83"></path><path d="M1270.75 425.5 a5.75 5.75 0 1 0 11.5 0 a5.75 5.75 0 1 0 -11.5 0zM603.75 425.5 a5.75 5.75 0 1 0 11.5 0 a5.75 5.75 0 1 0 -11.5 0zM488.75 448.5 a5.75 5.75 0 1 0 11.5 0 a5.75 5.75 0 1 0 -11.5 0zM1017.75 494.5 a5.75 5.75 0 1 0 11.5 0 a5.75 5.75 0 1 0 -11.5 0zM327.75 402.5 a5.75 5.75 0 1 0 11.5 0 a5.75 5.75 0 1 0 -11.5 0zM718.75 402.5 a5.75 5.75 0 1 0 11.5 0 a5.75 5.75 0 1 0 -11.5 0zM1063.75 356.5 a5.75 5.75 0 1 0 11.5 0 a5.75 5.75 0 1 0 -11.5 0zM442.75 448.5 a5.75 5.75 0 1 0 11.5 0 a5.75 5.75 0 1 0 -11.5 0zM1086.75 425.5 a5.75 5.75 0 1 0 11.5 0 a5.75 5.75 0 1 0 -11.5 0zM166.75 402.5 a5.75 5.75 0 1 0 11.5 0 a5.75 5.75 0 1 0 -11.5 0zM1063.75 402.5 a5.75 5.75 0 1 0 11.5 0 a5.75 5.75 0 1 0 -11.5 0zM994.75 402.5 a5.75 5.75 0 1 0 11.5 0 a5.75 5.75 0 1 0 -11.5 0zM419.75 448.5 a5.75 5.75 0 1 0 11.5 0 a5.75 5.75 0 1 0 -11.5 0zM1247.75 471.5 a5.75 5.75 0 1 0 11.5 0 a5.75 5.75 0 1 0 -11.5 0zM1040.75 471.5 a5.75 5.75 0 1 0 11.5 0 a5.75 5.75 0 1 0 -11.5 0z" fill="#dd1133"></path><path d="M540.5 149.5L563.5 126.5L586.5 126.5M632.5 172.5L655.5 149.5L678.5 149.5L701.5 126.5M609.5 172.5L632.5 149.5L655.5 126.5M494.5 149.5L517.5 126.5M425.5 149.5L448.5 126.5L471.5 126.5L494.5 126.5L517.5 103.5L540.5 80.5L563.5 80.5M747.5 126.5L770.5 103.5L793.5 103.5L816.5 103.5L839.5 103.5L862.5 103.5L885.5 103.5L908.5 103.5M724.5 126.5L747.5 103.5L770.5 80.5L793.5 80.5L816.5 80.5L839.5 80.5L862.5 80.5M402.5 149.5L425.5 126.5M586.5 149.5L609.5 149.5L632.5 126.5L655.5 103.5L678.5 103.5L701.5 103.5L724.5 103.5L747.5 80.5L770.5 57.5L793.5 57.5L816.5 57.5L839.5 57.5L862.5 57.5L885.5 57.5L908.5 57.5M-11.5 172.5L11.5 172.5L34.5 172.5L57.5 172.5L80.5 172.5L103.5 172.5L126.5 172.5L149.5 172.5L172.5 149.5L195.5 149.5L218.5 149.5L241.5 149.5L264.5 149.5L287.5 149.5L310.5 149.5L333.5 149.5L356.5 149.5L379.5 149.5L402.5 149.5L425.5 149.5L448.5 149.5L471.5 149.5L494.5 149.5L517.5 149.5L540.5 149.5L563.5 149.5L586.5 149.5L609.5 172.5L632.5 172.5L655.5 172.5L678.5 172.5L701.5 149.5L724.5 126.5L747.5 126.5L770.5 126.5L793.5 149.5" stroke="#dd1133" stroke-width="3.83"></path><path d="M787.75 149.5 a5.75 5.75 0 1 0 11.5 0 a5.75 5.75 0 1 0 -11.5 0zM580.75 126.5 a5.75 5.75 0 1 0 11.5 0 a5.75 5.75 0 1 0 -11.5 0zM695.75 126.5 a5.75 5.75 0 1 0 11.5 0 a5.75 5.75 0 1 0 -11.5 0zM649.75 126.5 a5.75 5.75 0 1 0 11.5 0 a5.75 5.75 0 1 0 -11.5 0zM511.75 126.5 a5.75 5.75 0 1 0 11.5 0 a5.75 5.75 0 1 0 -11.5 0zM557.75 80.5 a5.75 5.75 0 1 0 11.5 0 a5.75 5.75 0 1 0 -11.5 0zM902.75 103.5 a5.75 5.75 0 1 0 11.5 0 a5.75 5.75 0 1 0 -11.5 0zM856.75 80.5 a5.75 5.75 0 1 0 11.5 0 a5.75 5.75 0 1 0 -11.5 0zM419.75 126.5 a5.75 5.75 0 1 0 11.5 0 a5.75 5.75 0 1 0 -11.5 0zM902.75 57.5 a5.75 5.75 0 1 0 11.5 0 a5.75 5.75 0 1 0 -11.5 0z" fill="#dd1133"></path><path d="M34.5 402.5L57.5 425.5L80.5 448.5L103.5 448.5M57.5 402.5L80.5 402.5M218.5 448.5L241.5 425.5L264.5 425.5M-11.5 402.5L11.5 402.5L34.5 402.5L57.5 402.5L80.5 425.5L103.5 425.5L126.5 448.5L149.5 448.5L172.5 448.5L195.5 448.5L218.5 448.5L241.5 448.5L264.5 448.5L287.5 448.5" stroke="#3a7cc3" stroke-width="3.83"></path><path d="M281.75 448.5 a5.75 5.75 0 1 0 11.5 0 a5.75 5.75 0 1 0 -11.5 0zM97.75 448.5 a5.75 5.75 0 1 0 11.5 0 a5.75 5.75 0 1 0 -11.5 0zM74.75 402.5 a5.75 5.75 0 1 0 11.5 0 a5.75 5.75 0 1 0 -11.5 0zM258.75 425.5 a5.75 5.75 0 1 0 11.5 0 a5.75 5.75 0 1 0 -11.5 0z" fill="#3a7cc3"></path><path d="M356.5 126.5L379.5 103.5L402.5 80.5L425.5 80.5M310.5 126.5L333.5 103.5L356.5 103.5M195.5 126.5L218.5 103.5L241.5 103.5L264.5 103.5L287.5 103.5M11.5 149.5L34.5 126.5M126.5 149.5L149.5 126.5L172.5 103.5M-11.5 149.5L11.5 149.5L34.5 149.5L57.5 149.5L80.5 149.5L103.5 149.5L126.5 149.5L149.5 149.5L172.5 126.5L195.5 126.5L218.5 126.5L241.5 126.5L264.5 126.5L287.5 126.5L310.5 126.5L333.5 126.5L356.5 126.5L379.5 126.5L402.5 103.5L425.5 103.5" stroke="#3a7cc3" stroke-width="3.83"></path><path d="M419.75 103.5 a5.75 5.75 0 1 0 11.5 0 a5.75 5.75 0 1 0 -11.5 0zM419.75 80.5 a5.75 5.75 0 1 0 11.5 0 a5.75 5.75 0 1 0 -11.5 0zM350.75 103.5 a5.75 5.75 0 1 0 11.5 0 a5.75 5.75 0 1 0 -11.5 0zM281.75 103.5 a5.75 5.75 0 1 0 11.5 0 a5.75 5.75 0 1 0 -11.5 0zM28.75 126.5 a5.75 5.75 0 1 0 11.5 0 a5.75 5.75 0 1 0 -11.5 0zM166.75 103.5 a5.75 5.75 0 1 0 11.5 0 a5.75 5.75 0 1 0 -11.5 0z" fill="#3a7cc3"></path></g></g><defs><mask id="SvgjsMask1171"><rect width="1440" height="560" fill="#ffffff"></rect></mask><linearGradient x1="15.28%" y1="-39.29%" x2="84.72%" y2="139.29%" gradientUnits="userSpaceOnUse" id="SvgjsLinearGradient1172"><stop stop-color="#0e2a47" offset="0"></stop><stop stop-color="#00459e" offset="1"></stop></linearGradient><mask id="SvgjsMask1173"><rect width="1440" height="560" fill="white"></rect><path d="M1296.62 172.5 a2.88 2.88 0 1 0 5.76 0 a2.88 2.88 0 1 0 -5.76 0zM629.62 287.5 a2.88 2.88 0 1 0 5.76 0 a2.88 2.88 0 1 0 -5.76 0zM905.62 241.5 a2.88 2.88 0 1 0 5.76 0 a2.88 2.88 0 1 0 -5.76 0zM560.62 264.5 a2.88 2.88 0 1 0 5.76 0 a2.88 2.88 0 1 0 -5.76 0zM790.62 264.5 a2.88 2.88 0 1 0 5.76 0 a2.88 2.88 0 1 0 -5.76 0zM238.62 287.5 a2.88 2.88 0 1 0 5.76 0 a2.88 2.88 0 1 0 -5.76 0zM744.62 264.5 a2.88 2.88 0 1 0 5.76 0 a2.88 2.88 0 1 0 -5.76 0zM491.62 287.5 a2.88 2.88 0 1 0 5.76 0 a2.88 2.88 0 1 0 -5.76 0zM1112.62 218.5 a2.88 2.88 0 1 0 5.76 0 a2.88 2.88 0 1 0 -5.76 0zM1388.62 264.5 a2.88 2.88 0 1 0 5.76 0 a2.88 2.88 0 1 0 -5.76 0zM1273.62 218.5 a2.88 2.88 0 1 0 5.76 0 a2.88 2.88 0 1 0 -5.76 0zM1342.62 149.5 a2.88 2.88 0 1 0 5.76 0 a2.88 2.88 0 1 0 -5.76 0zM1066.62 172.5 a2.88 2.88 0 1 0 5.76 0 a2.88 2.88 0 1 0 -5.76 0zM767.62 218.5 a2.88 2.88 0 1 0 5.76 0 a2.88 2.88 0 1 0 -5.76 0zM767.62 172.5 a2.88 2.88 0 1 0 5.76 0 a2.88 2.88 0 1 0 -5.76 0z" fill="black"></path><path d="M583.62 218.5 a2.88 2.88 0 1 0 5.76 0 a2.88 2.88 0 1 0 -5.76 0zM330.62 218.5 a2.88 2.88 0 1 0 5.76 0 a2.88 2.88 0 1 0 -5.76 0zM376.62 195.5 a2.88 2.88 0 1 0 5.76 0 a2.88 2.88 0 1 0 -5.76 0zM583.62 195.5 a2.88 2.88 0 1 0 5.76 0 a2.88 2.88 0 1 0 -5.76 0zM514.62 218.5 a2.88 2.88 0 1 0 5.76 0 a2.88 2.88 0 1 0 -5.76 0zM514.62 195.5 a2.88 2.88 0 1 0 5.76 0 a2.88 2.88 0 1 0 -5.76 0zM261.62 195.5 a2.88 2.88 0 1 0 5.76 0 a2.88 2.88 0 1 0 -5.76 0z" fill="black"></path><path d="M836.62 287.5 a2.88 2.88 0 1 0 5.76 0 a2.88 2.88 0 1 0 -5.76 0zM606.62 333.5 a2.88 2.88 0 1 0 5.76 0 a2.88 2.88 0 1 0 -5.76 0zM307.62 310.5 a2.88 2.88 0 1 0 5.76 0 a2.88 2.88 0 1 0 -5.76 0zM721.62 287.5 a2.88 2.88 0 1 0 5.76 0 a2.88 2.88 0 1 0 -5.76 0zM882.62 310.5 a2.88 2.88 0 1 0 5.76 0 a2.88 2.88 0 1 0 -5.76 0zM882.62 333.5 a2.88 2.88 0 1 0 5.76 0 a2.88 2.88 0 1 0 -5.76 0zM721.62 333.5 a2.88 2.88 0 1 0 5.76 0 a2.88 2.88 0 1 0 -5.76 0zM169.62 287.5 a2.88 2.88 0 1 0 5.76 0 a2.88 2.88 0 1 0 -5.76 0zM836.62 356.5 a2.88 2.88 0 1 0 5.76 0 a2.88 2.88 0 1 0 -5.76 0zM468.62 287.5 a2.88 2.88 0 1 0 5.76 0 a2.88 2.88 0 1 0 -5.76 0z" fill="black"></path><path d="M215.62 195.5 a2.88 2.88 0 1 0 5.76 0 a2.88 2.88 0 1 0 -5.76 0zM215.62 218.5 a2.88 2.88 0 1 0 5.76 0 a2.88 2.88 0 1 0 -5.76 0zM100.62 218.5 a2.88 2.88 0 1 0 5.76 0 a2.88 2.88 0 1 0 -5.76 0zM192.62 218.5 a2.88 2.88 0 1 0 5.76 0 a2.88 2.88 0 1 0 -5.76 0z" fill="black"></path><path d="M583.62 356.5 a2.88 2.88 0 1 0 5.76 0 a2.88 2.88 0 1 0 -5.76 0zM514.62 333.5 a2.88 2.88 0 1 0 5.76 0 a2.88 2.88 0 1 0 -5.76 0zM376.62 333.5 a2.88 2.88 0 1 0 5.76 0 a2.88 2.88 0 1 0 -5.76 0z" fill="black"></path><path d="M31.62 218.5 a2.88 2.88 0 1 0 5.76 0 a2.88 2.88 0 1 0 -5.76 0z" fill="black"></path><path d="M606.62 379.5 a2.88 2.88 0 1 0 5.76 0 a2.88 2.88 0 1 0 -5.76 0z" fill="black"></path><path d="M1158.62 126.5 a2.88 2.88 0 1 0 5.76 0 a2.88 2.88 0 1 0 -5.76 0zM744.62 172.5 a2.88 2.88 0 1 0 5.76 0 a2.88 2.88 0 1 0 -5.76 0zM859.62 195.5 a2.88 2.88 0 1 0 5.76 0 a2.88 2.88 0 1 0 -5.76 0zM1020.62 80.5 a2.88 2.88 0 1 0 5.76 0 a2.88 2.88 0 1 0 -5.76 0zM905.62 218.5 a2.88 2.88 0 1 0 5.76 0 a2.88 2.88 0 1 0 -5.76 0zM721.62 195.5 a2.88 2.88 0 1 0 5.76 0 a2.88 2.88 0 1 0 -5.76 0zM1158.62 103.5 a2.88 2.88 0 1 0 5.76 0 a2.88 2.88 0 1 0 -5.76 0zM1066.62 103.5 a2.88 2.88 0 1 0 5.76 0 a2.88 2.88 0 1 0 -5.76 0zM77.62 218.5 a2.88 2.88 0 1 0 5.76 0 a2.88 2.88 0 1 0 -5.76 0zM1020.62 149.5 a2.88 2.88 0 1 0 5.76 0 a2.88 2.88 0 1 0 -5.76 0zM836.62 218.5 a2.88 2.88 0 1 0 5.76 0 a2.88 2.88 0 1 0 -5.76 0zM560.62 195.5 a2.88 2.88 0 1 0 5.76 0 a2.88 2.88 0 1 0 -5.76 0zM951.62 126.5 a2.88 2.88 0 1 0 5.76 0 a2.88 2.88 0 1 0 -5.76 0zM1066.62 80.5 a2.88 2.88 0 1 0 5.76 0 a2.88 2.88 0 1 0 -5.76 0z" fill="black"></path><path d="M1273.62 425.5 a2.88 2.88 0 1 0 5.76 0 a2.88 2.88 0 1 0 -5.76 0zM606.62 425.5 a2.88 2.88 0 1 0 5.76 0 a2.88 2.88 0 1 0 -5.76 0zM491.62 448.5 a2.88 2.88 0 1 0 5.76 0 a2.88 2.88 0 1 0 -5.76 0zM1020.62 494.5 a2.88 2.88 0 1 0 5.76 0 a2.88 2.88 0 1 0 -5.76 0zM330.62 402.5 a2.88 2.88 0 1 0 5.76 0 a2.88 2.88 0 1 0 -5.76 0zM721.62 402.5 a2.88 2.88 0 1 0 5.76 0 a2.88 2.88 0 1 0 -5.76 0zM1066.62 356.5 a2.88 2.88 0 1 0 5.76 0 a2.88 2.88 0 1 0 -5.76 0zM445.62 448.5 a2.88 2.88 0 1 0 5.76 0 a2.88 2.88 0 1 0 -5.76 0zM1089.62 425.5 a2.88 2.88 0 1 0 5.76 0 a2.88 2.88 0 1 0 -5.76 0zM169.62 402.5 a2.88 2.88 0 1 0 5.76 0 a2.88 2.88 0 1 0 -5.76 0zM1066.62 402.5 a2.88 2.88 0 1 0 5.76 0 a2.88 2.88 0 1 0 -5.76 0zM997.62 402.5 a2.88 2.88 0 1 0 5.76 0 a2.88 2.88 0 1 0 -5.76 0zM422.62 448.5 a2.88 2.88 0 1 0 5.76 0 a2.88 2.88 0 1 0 -5.76 0zM1250.62 471.5 a2.88 2.88 0 1 0 5.76 0 a2.88 2.88 0 1 0 -5.76 0zM1043.62 471.5 a2.88 2.88 0 1 0 5.76 0 a2.88 2.88 0 1 0 -5.76 0z" fill="black"></path><path d="M790.62 149.5 a2.88 2.88 0 1 0 5.76 0 a2.88 2.88 0 1 0 -5.76 0zM583.62 126.5 a2.88 2.88 0 1 0 5.76 0 a2.88 2.88 0 1 0 -5.76 0zM698.62 126.5 a2.88 2.88 0 1 0 5.76 0 a2.88 2.88 0 1 0 -5.76 0zM652.62 126.5 a2.88 2.88 0 1 0 5.76 0 a2.88 2.88 0 1 0 -5.76 0zM514.62 126.5 a2.88 2.88 0 1 0 5.76 0 a2.88 2.88 0 1 0 -5.76 0zM560.62 80.5 a2.88 2.88 0 1 0 5.76 0 a2.88 2.88 0 1 0 -5.76 0zM905.62 103.5 a2.88 2.88 0 1 0 5.76 0 a2.88 2.88 0 1 0 -5.76 0zM859.62 80.5 a2.88 2.88 0 1 0 5.76 0 a2.88 2.88 0 1 0 -5.76 0zM422.62 126.5 a2.88 2.88 0 1 0 5.76 0 a2.88 2.88 0 1 0 -5.76 0zM905.62 57.5 a2.88 2.88 0 1 0 5.76 0 a2.88 2.88 0 1 0 -5.76 0z" fill="black"></path><path d="M284.62 448.5 a2.88 2.88 0 1 0 5.76 0 a2.88 2.88 0 1 0 -5.76 0zM100.62 448.5 a2.88 2.88 0 1 0 5.76 0 a2.88 2.88 0 1 0 -5.76 0zM77.62 402.5 a2.88 2.88 0 1 0 5.76 0 a2.88 2.88 0 1 0 -5.76 0zM261.62 425.5 a2.88 2.88 0 1 0 5.76 0 a2.88 2.88 0 1 0 -5.76 0z" fill="black"></path><path d="M422.62 103.5 a2.88 2.88 0 1 0 5.76 0 a2.88 2.88 0 1 0 -5.76 0zM422.62 80.5 a2.88 2.88 0 1 0 5.76 0 a2.88 2.88 0 1 0 -5.76 0zM353.62 103.5 a2.88 2.88 0 1 0 5.76 0 a2.88 2.88 0 1 0 -5.76 0zM284.62 103.5 a2.88 2.88 0 1 0 5.76 0 a2.88 2.88 0 1 0 -5.76 0zM31.62 126.5 a2.88 2.88 0 1 0 5.76 0 a2.88 2.88 0 1 0 -5.76 0zM169.62 103.5 a2.88 2.88 0 1 0 5.76 0 a2.88 2.88 0 1 0 -5.76 0z" fill="black"></path></mask></defs></svg>